HIERARCHY
ROOT Hips
{
	OFFSET 0.000000 103.266502 0.000000
	CHANNELS 6 Xposition Yposition Zposition Xrotation Yrotation Zrotation 
	JOINT Spine
	{
		OFFSET -0.002400 12.777504 0.315300
		CHANNELS 3 Xrotation Yrotation Zrotation
		JOINT Spine1
		{
			OFFSET -0.002067 5.816869 0.032633
			CHANNELS 3 Xrotation Yrotation Zrotation
			JOINT Spine1_split
			{
				OFFSET -0.002067 5.816869 0.032633
				CHANNELS 3 Xrotation Yrotation Zrotation
				JOINT Spine2
				{
					OFFSET -0.002067 5.816869 0.032633
					CHANNELS 3 Xrotation Yrotation Zrotation
					JOINT Neck
					{
						OFFSET -0.003700 21.199493 -0.826900
						CHANNELS 3 Xrotation Yrotation Zrotation
						JOINT Head
						{
							OFFSET 0.000000 20.442200 4.834800
							CHANNELS 3 Xrotation Yrotation Zrotation
							JOINT HeadTop_End
							{
								OFFSET 0.000000 34.668396 4.968400
								CHANNELS 3 Xrotation Yrotation Zrotation
								End Site
								{
									OFFSET 0.000000 0.000000 0.000000
								}
							}
						}
					}
					JOINT LeftShoulder
					{
						OFFSET 3.288150 8.794197 -1.372250
						CHANNELS 3 Xrotation Yrotation Zrotation
						JOINT LeftShoulder_split
						{
							OFFSET 3.288150 8.794197 -1.372250
							CHANNELS 3 Xrotation Yrotation Zrotation
							JOINT LeftArm
							{
								OFFSET 11.953299 -2.279007 -0.146200
								CHANNELS 3 Xrotation Yrotation Zrotation
								JOINT LeftForeArm
								{
									OFFSET 18.448900 0.000000 0.000000
									CHANNELS 3 Xrotation Yrotation Zrotation
									JOINT LeftHand
									{
										OFFSET 29.527798 0.000000 0.000000
										CHANNELS 3 Xrotation Yrotation Zrotation
										JOINT LeftHandThumb1
										{
											OFFSET 10.739754 -2.369614 9.225399
											CHANNELS 3 Xrotation Yrotation Zrotation
											JOINT LeftHandThumb2
											{
												OFFSET 4.926170 -2.844131 2.844125
												CHANNELS 3 Xrotation Yrotation Zrotation
												JOINT LeftHandThumb3
												{
													OFFSET 4.614891 -2.664413 2.664409
													CHANNELS 3 Xrotation Yrotation Zrotation
													JOINT LeftHandThumb4
													{
														OFFSET 4.432465 -2.559082 2.559083
														CHANNELS 3 Xrotation Yrotation Zrotation
														End Site
														{
															OFFSET 0.000000 0.000000 0.000000
														}
													}
												}
											}
										}
										JOINT LeftHandIndex1
										{
											OFFSET 26.467674 0.187653 6.405298
											CHANNELS 3 Xrotation Yrotation Zrotation
											JOINT LeftHandIndex2
											{
												OFFSET 8.792900 0.000000 0.000000
												CHANNELS 3 Xrotation Yrotation Zrotation
												JOINT LeftHandIndex3
												{
													OFFSET 10.075203 0.000000 0.000000
													CHANNELS 3 Xrotation Yrotation Zrotation
													End Site
													{
														OFFSET 0.000000 0.000000 0.000000
													}
												}
											}
										}
										JOINT LeftHandMiddle1
										{
											OFFSET 25.764404 0.000000 0.000000
											CHANNELS 3 Xrotation Yrotation Zrotation
											JOINT LeftHandMiddle2
											{
												OFFSET 9.393974 0.000000 0.000000
												CHANNELS 3 Xrotation Yrotation Zrotation
												JOINT LeftHandMiddle3
												{
													OFFSET 10.771950 0.000000 0.000000
													CHANNELS 3 Xrotation Yrotation Zrotation
													End Site
													{
														OFFSET 0.000000 0.000000 0.000000
													}
												}
											}
										}
										JOINT LeftHandRing1
										{
											OFFSET 24.660927 0.144547 -6.225808
											CHANNELS 3 Xrotation Yrotation Zrotation
											JOINT LeftHandRing2
											{
												OFFSET 9.393799 0.000000 0.000000
												CHANNELS 3 Xrotation Yrotation Zrotation
												JOINT LeftHandRing3
												{
													OFFSET 9.928497 0.000000 0.000000
													CHANNELS 3 Xrotation Yrotation Zrotation
													End Site
													{
														OFFSET 0.000000 0.000000 0.000000
													}
												}
											}
										}
										JOINT LeftHandPinky1
										{
											OFFSET 23.655350 0.125290 -12.815412
											CHANNELS 3 Xrotation Yrotation Zrotation
											JOINT LeftHandPinky2
											{
												OFFSET 8.425102 0.000000 0.000000
												CHANNELS 3 Xrotation Yrotation Zrotation
												JOINT LeftHandPinky3
												{
													OFFSET 8.147003 0.000000 0.000000
													CHANNELS 3 Xrotation Yrotation Zrotation
													End Site
													{
														OFFSET 0.000000 0.000000 0.000000
													}
												}
											}
										}
									}
								}
							}
						}
					}
					JOINT RightShoulder
					{
						OFFSET -3.249400 8.794197 -1.372250
						CHANNELS 3 Xrotation Yrotation Zrotation
						JOINT RightShoulder_split
						{
							OFFSET -3.249400 8.794197 -1.372250
							CHANNELS 3 Xrotation Yrotation Zrotation
							JOINT RightArm
							{
								OFFSET -11.953299 -2.279007 -0.146200
								CHANNELS 3 Xrotation Yrotation Zrotation
								JOINT RightForeArm
								{
									OFFSET -18.448900 0.000000 0.000000
									CHANNELS 3 Xrotation Yrotation Zrotation
									JOINT RightHand
									{
										OFFSET -29.527802 0.000000 0.000000
										CHANNELS 3 Xrotation Yrotation Zrotation
										JOINT RightHandThumb1
										{
											OFFSET -10.739754 -2.369614 9.225399
											CHANNELS 3 Xrotation Yrotation Zrotation
											JOINT RightHandThumb2
											{
												OFFSET -4.926170 -2.844131 2.844125
												CHANNELS 3 Xrotation Yrotation Zrotation
												JOINT RightHandThumb3
												{
													OFFSET -4.614891 -2.664413 2.664409
													CHANNELS 3 Xrotation Yrotation Zrotation
													JOINT RightHandThumb4
													{
														OFFSET -4.432465 -2.559082 2.559083
														CHANNELS 3 Xrotation Yrotation Zrotation
														End Site
														{
															OFFSET 0.000000 0.000000 0.000000
														}
													}
												}
											}
										}
										JOINT RightHandIndex1
										{
											OFFSET -26.467674 0.187653 6.405298
											CHANNELS 3 Xrotation Yrotation Zrotation
											JOINT RightHandIndex2
											{
												OFFSET -8.792900 0.000000 0.000000
												CHANNELS 3 Xrotation Yrotation Zrotation
												JOINT RightHandIndex3
												{
													OFFSET -10.075203 0.000000 0.000000
													CHANNELS 3 Xrotation Yrotation Zrotation
													End Site
													{
														OFFSET 0.000000 0.000000 0.000000
													}
												}
											}
										}
										JOINT RightHandMiddle1
										{
											OFFSET -25.764404 0.000000 0.000000
											CHANNELS 3 Xrotation Yrotation Zrotation
											JOINT RightHandMiddle2
											{
												OFFSET -9.393974 0.000000 0.000000
												CHANNELS 3 Xrotation Yrotation Zrotation
												JOINT RightHandMiddle3
												{
													OFFSET -10.771950 0.000000 0.000000
													CHANNELS 3 Xrotation Yrotation Zrotation
													End Site
													{
														OFFSET 0.000000 0.000000 0.000000
													}
												}
											}
										}
										JOINT RightHandRing1
										{
											OFFSET -24.660927 0.144547 -6.225808
											CHANNELS 3 Xrotation Yrotation Zrotation
											JOINT RightHandRing2
											{
												OFFSET -9.393799 0.000000 0.000000
												CHANNELS 3 Xrotation Yrotation Zrotation
												JOINT RightHandRing3
												{
													OFFSET -9.928497 0.000000 0.000000
													CHANNELS 3 Xrotation Yrotation Zrotation
													End Site
													{
														OFFSET 0.000000 0.000000 0.000000
													}
												}
											}
										}
										JOINT RightHandPinky1
										{
											OFFSET -23.655350 0.125290 -12.815412
											CHANNELS 3 Xrotation Yrotation Zrotation
											JOINT RightHandPinky2
											{
												OFFSET -8.425102 0.000000 0.000000
												CHANNELS 3 Xrotation Yrotation Zrotation
												JOINT RightHandPinky3
												{
													OFFSET -8.147003 0.000000 0.000000
													CHANNELS 3 Xrotation Yrotation Zrotation
													End Site
													{
														OFFSET 0.000000 0.000000 0.000000
													}
												}
											}
										}
									}
								}
							}
						}
					}
				}
			}
		}
	}
	JOINT LeftUpLeg
	{
		OFFSET 11.394100 -6.187798 -0.413800
		CHANNELS 3 Xrotation Yrotation Zrotation
		JOINT LeftLeg
		{
			OFFSET 0.430247 -32.302673 3.732800
			CHANNELS 3 Xrotation Yrotation Zrotation
			JOINT LeftFoot
			{
				OFFSET -0.430247 -48.264931 -6.423300
				CHANNELS 3 Xrotation Yrotation Zrotation
				JOINT LeftToeBase
				{
					OFFSET 4.230900 -16.068199 23.438400
					CHANNELS 3 Xrotation Yrotation Zrotation
					JOINT LeftToe_End
					{
						OFFSET 4.510700 0.695400 19.974600
						CHANNELS 3 Xrotation Yrotation Zrotation
						End Site
						{
							OFFSET 0.000000 0.000000 0.000000
						}
					}
				}
			}
		}
	}
	JOINT RightUpLeg
	{
		OFFSET -11.333700 -6.187798 -0.413800
		CHANNELS 3 Xrotation Yrotation Zrotation
		JOINT RightLeg
		{
			OFFSET -0.430392 -32.302628 3.733000
			CHANNELS 3 Xrotation Yrotation Zrotation
			JOINT RightFoot
			{
				OFFSET 0.430392 -48.264973 -6.423500
				CHANNELS 3 Xrotation Yrotation Zrotation
				JOINT RightToeBase
				{
					OFFSET -4.230900 -16.068199 23.438400
					CHANNELS 3 Xrotation Yrotation Zrotation
					JOINT RightToe_End
					{
						OFFSET -4.510700 0.695400 19.974600
						CHANNELS 3 Xrotation Yrotation Zrotation
						End Site
						{
							OFFSET 0.000000 0.000000 0.000000
						}
					}
				}
			}
		}
	}
}
MOTION
Frames: 4
Frame Time: 0.016667
-0.417086 85.632561 0.298991 11.705650 -49.521419 11.404096 10.978887 2.848649 -2.161211 6.100711 5.566539 -4.284685 0.000000 0.000000 0.000000 -5.786918 6.328148 -3.046184 2.319051 9.363312 -0.265465 -4.147097 23.161909 -3.523281 -0.000000 0.000000 0.000000 -1.875338 -16.181679 -2.870471 0.000000 0.000000 0.000000 -10.644684 2.164658 -45.510623 -22.862378 -25.786245 -15.871652 2.491024 -2.511865 6.860435 18.457975 -9.513760 13.216598 -1.150209 11.255317 -8.400831 5.706546 8.483122 -0.820725 0.000002 -0.000001 0.000001 -1.232791 -5.771961 -0.192347 0.133939 -0.197646 -4.602131 -0.000002 0.000000 0.000000 1.884735 4.663383 -4.597385 0.476701 -1.009849 -12.986400 -0.000002 0.000002 -0.000002 3.024630 7.938918 -14.103463 -0.708017 -0.566207 -18.895747 -0.000001 -0.000000 -0.000001 2.010403 6.305961 -22.386526 -0.815367 -0.210761 -16.746483 -0.000001 -0.000000 -0.000001 -5.074634 24.343807 1.482712 0.000000 0.000000 0.000000 6.642374 -34.733810 57.610405 -21.031976 44.833809 19.961629 -0.087216 35.608501 7.474244 55.149574 18.649524 -29.698301 -0.442554 -14.180555 7.313157 21.666967 -29.244490 9.142364 0.000000 -0.000001 -0.000002 5.673400 7.585007 36.844182 1.050426 3.824515 68.900257 0.000001 -0.000003 -0.000001 -0.125705 1.886100 45.000776 -1.169022 3.204657 68.417677 0.000001 0.000000 -0.000000 -5.312006 1.216641 58.508794 -0.745216 1.667566 48.011278 0.000000 -0.000001 -0.000001 -7.756803 -9.376457 47.263997 -0.526049 1.541595 45.600515 -0.000002 0.000000 0.000001 -68.323523 24.998807 43.261909 44.538062 -19.585112 3.202451 7.537693 0.565777 -11.518811 -0.806758 -6.108565 0.921162 -0.000000 -0.000000 -0.000000 -38.056373 1.958642 -24.202652 52.398315 1.036804 -6.829654 -21.041573 -1.757614 25.309532 0.528311 2.970082 1.471347 -0.000000 0.000002 -0.000000 
0.241014 85.742912 1.273037 11.490566 -50.121991 11.151021 10.940007 2.841154 -2.069665 6.124973 5.554795 -4.185742 0.000000 0.000000 0.000000 -5.749233 6.252882 -2.945709 2.454505 9.259355 0.283438 -4.037797 23.425823 -4.188945 0.000000 -0.000000 -0.000000 -1.890577 -15.766092 -3.028446 0.000000 0.000000 0.000000 -10.843724 2.172852 -45.626985 -22.239279 -25.278194 -15.651677 2.395519 -2.217336 6.686378 18.445865 -9.516998 13.239952 -1.175409 11.215337 -8.387392 5.706530 8.483092 -0.820714 -0.000003 0.000001 -0.000001 -1.232786 -5.771111 -0.170634 0.134041 -0.196795 -4.580398 -0.000002 0.000003 -0.000001 1.839201 4.652776 -4.567416 0.476919 -1.008874 -12.960890 0.000002 -0.000002 0.000001 3.025055 7.940580 -14.060278 -0.707453 -0.564584 -18.852220 -0.000003 -0.000001 -0.000001 2.032034 6.337676 -22.326000 -0.814705 -0.208479 -16.683555 -0.000001 -0.000000 -0.000001 -5.114987 24.192841 1.600718 0.000000 0.000000 0.000000 7.019131 -34.769406 57.282850 -21.780884 43.486971 20.030047 -0.160468 36.453157 8.087221 55.149570 18.649522 -29.698305 -0.442553 -14.180563 7.313153 21.666969 -29.244486 9.142361 0.000000 0.000000 -0.000001 5.673398 7.585010 36.844178 1.050425 3.824514 68.900257 -0.000001 -0.000002 -0.000001 -0.125702 1.886099 45.000776 -1.169022 3.204659 68.417677 0.000000 0.000000 0.000001 -5.312007 1.216641 58.508794 -0.745216 1.667563 48.011271 0.000001 -0.000000 0.000002 -7.756803 -9.376456 47.263997 -0.526049 1.541597 45.600511 -0.000003 -0.000001 -0.000001 -68.384674 24.979907 43.471630 45.908543 -19.139681 3.034433 6.445263 0.638020 -10.706519 -0.808289 -6.108599 0.922676 -0.000000 0.000001 -0.000000 -37.063803 2.126574 -24.426877 50.892382 1.244949 -7.097638 -20.035026 -2.291687 26.112669 0.717113 3.574736 1.379340 0.000000 0.000000 -0.000000 
1.033890 85.922264 2.250242 11.304214 -50.890114 10.945962 10.839690 2.840568 -1.971349 6.211054 5.531382 -4.085917 0.000000 0.000000 0.000000 -5.634571 6.080631 -2.847558 2.506706 8.998886 0.963300 -3.946315 23.543609 -4.816442 0.000001 -0.000000 -0.000000 -1.898945 -15.838089 -3.026466 0.000000 0.000000 0.000000 -10.916573 3.036761 -45.852682 -21.654541 -24.915540 -15.679275 2.318327 -2.084240 6.697807 18.431660 -9.520759 13.267330 -1.205846 11.169448 -8.368950 5.706527 8.483110 -0.820712 -0.000001 -0.000000 0.000002 -1.232798 -5.770118 -0.145181 0.134135 -0.195817 -4.554966 0.000001 0.000001 -0.000000 1.785770 4.640257 -4.532351 0.477195 -1.007125 -12.931009 -0.000002 0.000001 -0.000001 3.025550 7.942519 -14.009666 -0.706806 -0.562728 -18.801303 0.000002 -0.000001 -0.000000 2.057238 6.374984 -22.255036 -0.813889 -0.205790 -16.609755 0.000001 -0.000002 -0.000000 -5.162248 24.117348 1.733594 0.000000 0.000000 0.000000 7.217177 -34.742908 57.034822 -22.411821 42.270087 20.016527 -0.144766 37.048872 8.544449 55.149577 18.649517 -29.698308 -0.442555 -14.180557 7.313155 21.666963 -29.244486 9.142361 0.000001 -0.000000 -0.000001 5.673401 7.585010 36.844182 1.050425 3.824515 68.900257 0.000000 0.000001 0.000000 -0.125700 1.886098 45.000776 -1.169022 3.204657 68.417670 0.000001 0.000000 0.000000 -5.312005 1.216644 58.508794 -0.745219 1.667563 48.011271 0.000002 -0.000001 -0.000001 -7.756803 -9.376456 47.264001 -0.526050 1.541594 45.600511 -0.000002 -0.000002 -0.000001 -68.297193 25.111349 43.648908 47.029517 -18.658081 2.811941 5.414165 0.767133 -9.875797 -0.813817 -6.104506 0.928639 -0.000000 0.000000 -0.000000 -36.085539 2.298666 -24.709905 49.154218 1.525574 -7.312128 -18.927984 -2.665432 26.899652 0.888212 4.174542 1.281112 -0.000000 0.000001 0.000000 
1.946825 86.136078 3.345993 11.201603 -51.879689 10.800501 10.681717 2.828571 -1.851282 6.304673 5.446441 -3.965665 0.000000 0.000000 0.000000 -5.493476 5.769520 -2.734773 2.557820 8.625427 1.729382 -3.941157 23.486688 -5.405073 0.000001 -0.000000 0.000000 -1.912183 -15.416608 -3.171548 0.000000 0.000000 0.000000 -11.148261 3.692014 -46.007529 -20.985172 -24.405058 -15.663029 2.270415 -1.926650 6.652081 18.404104 -9.528079 13.320409 -1.265172 11.080875 -8.332365 5.706519 8.483138 -0.820724 -0.000004 0.000000 -0.000000 -1.232762 -5.768242 -0.095811 0.134283 -0.193897 -4.505595 -0.000002 0.000001 0.000001 1.682316 4.615620 -4.464386 0.477672 -1.002981 -12.873078 -0.000000 0.000003 -0.000003 3.030792 7.946183 -13.912216 -0.705577 -0.559056 -18.702503 0.000001 0.000000 0.000000 2.105540 6.447771 -22.117580 -0.813385 -0.200586 -16.466592 0.000004 -0.000001 -0.000001 -5.215424 24.184382 1.892619 0.000000 0.000000 0.000000 6.918582 -34.742188 56.575290 -22.804880 40.833511 19.736825 -0.060777 37.536575 9.176389 55.149570 18.649512 -29.698305 -0.442554 -14.180555 7.313156 21.666967 -29.244483 9.142361 -0.000000 -0.000000 -0.000000 5.673401 7.585008 36.844175 1.050425 3.824516 68.900250 -0.000000 -0.000001 -0.000001 -0.125703 1.886096 45.000766 -1.169022 3.204656 68.417677 -0.000002 0.000000 -0.000000 -5.312004 1.216639 58.508787 -0.745217 1.667566 48.011275 0.000000 -0.000001 0.000003 -7.756801 -9.376459 47.263994 -0.526052 1.541591 45.600515 0.000000 -0.000000 -0.000003 -68.155685 25.300822 43.810981 48.190642 -18.055434 2.577279 4.257198 0.986884 -8.988495 -0.823687 -6.097986 0.940048 -0.000000 0.000000 0.000000 -35.083212 2.460550 -25.165122 47.083072 1.969957 -7.411238 -17.734967 -2.887184 27.728254 0.925886 4.755438 1.166102 -0.000000 0.000001 0.000000 
